<?xml version="1.0" standalone="no"?>
<!DOCTYPE svg PUBLIC "-//W3C//DTD SVG 20010904//EN"
 "http://www.w3.org/TR/2001/REC-SVG-20010904/DTD/svg10.dtd">
<svg version="1.0" xmlns="http://www.w3.org/2000/svg"
 width="8000.000000pt" height="7942.000000pt" viewBox="0 0 8000.000000 7942.000000"
 preserveAspectRatio="xMidYMid meet">

<g transform="translate(0.000000,7942.000000) scale(0.100000,-0.100000)"
fill="#000000" stroke="none">
<path d="M12395 71435 c-71 -18 -145 -38 -164 -45 -48 -18 -236 -126 -296
-171 -146 -106 -278 -258 -363 -418 -92 -170 -121 -269 -147 -503 -13 -121
-15 -857 -15 -6383 l0 -6245 -1052 0 c-987 0 -1063 -1 -1208 -20 -239 -30
-341 -62 -501 -158 -193 -114 -234 -153 -435 -406 -73 -93 -125 -216 -176
-421 -29 -117 -32 -145 -32 -280 0 -135 3 -163 32 -280 49 -196 95 -304 186
-430 209 -291 381 -411 771 -536 32 -11 292 -14 1228 -17 l1187 -3 0 -6409 0
-6410 -1093 0 c-887 0 -1114 -3 -1207 -14 -63 -8 -122 -17 -130 -20 -382 -125
-547 -242 -758 -534 -93 -128 -133 -221 -184 -427 -29 -117 -32 -145 -32 -280
0 -135 3 -163 32 -280 51 -206 91 -299 184 -427 146 -203 235 -286 427 -400
151 -90 289 -135 483 -157 64 -7 464 -11 1187 -11 l1091 0 0 -6560 0 -6559
-1147 -4 c-1045 -3 -1153 -4 -1203 -20 -30 -9 -66 -17 -80 -17 -29 0 -246 -80
-305 -112 -95 -52 -267 -185 -322 -250 -21 -24 -42 -50 -150 -194 -65 -86
-113 -204 -164 -404 -30 -115 -33 -138 -33 -280 0 -142 3 -165 33 -280 51
-200 99 -318 164 -404 117 -156 148 -194 173 -220 87 -87 318 -236 434 -280
36 -14 120 -39 187 -56 l122 -30 1145 0 1146 0 0 -5940 c0 -5360 2 -5954 16
-6082 27 -241 65 -368 162 -529 136 -229 260 -348 512 -491 118 -67 153 -80
312 -118 l127 -30 5565 0 5564 0 4 -917 4 -918 32 -125 c42 -161 54 -192 125
-325 121 -224 323 -418 562 -537 111 -56 125 -61 255 -94 96 -25 122 -27 295
-27 180 0 197 2 318 31 97 24 155 46 239 89 174 88 244 141 383 285 122 127
129 136 190 262 74 152 120 283 135 381 6 43 10 425 10 983 l0 912 6410 0
6410 0 0 -868 c0 -1060 -2 -1034 102 -1297 54 -139 99 -216 184 -316 121 -143
209 -215 384 -315 125 -71 160 -85 305 -121 100 -24 127 -27 300 -26 187 0
193 0 330 37 115 30 160 47 250 98 163 90 219 134 351 271 107 111 126 137
187 250 37 69 67 130 67 135 0 5 14 51 31 103 56 170 59 233 59 1186 l0 863
6560 0 6560 0 0 -868 c0 -1022 1 -1030 78 -1238 75 -199 145 -311 289 -460 98
-101 157 -147 282 -218 127 -73 195 -100 326 -131 110 -26 136 -29 305 -28
180 0 189 1 322 36 109 28 161 49 261 102 144 76 195 113 291 210 133 136 182
200 250 329 57 108 74 152 107 280 l39 151 0 918 0 917 6813 0 6812 0 154 40
c125 32 174 51 269 100 64 34 126 69 138 78 12 9 55 42 95 73 82 63 115 96
180 182 152 202 184 267 244 508 32 127 35 150 35 289 0 139 -3 162 -35 289
-62 245 -93 309 -256 523 -80 105 -267 261 -386 322 -60 30 -274 106 -301 106
-15 0 -52 8 -82 18 -52 16 -1510 17 -27671 22 l-27615 5 3461 3849 c1903 2117
3468 3854 3477 3859 13 9 53 -7 185 -70 160 -78 462 -195 623 -242 120 -35
442 -110 475 -111 17 0 46 -5 65 -10 88 -26 289 -41 620 -47 304 -4 368 -2
540 16 184 19 482 73 670 121 345 88 775 271 1123 480 634 379 1201 963 1569
1618 54 95 86 142 97 141 9 0 1607 -404 3551 -897 l3535 -897 16 -145 c30
-269 75 -475 174 -795 48 -157 94 -276 196 -509 155 -351 226 -469 527 -871
257 -341 629 -688 1022 -952 243 -164 392 -246 650 -360 563 -250 1151 -373
1779 -373 565 0 1053 95 1616 314 182 71 543 252 700 350 253 160 552 405 816
673 235 236 319 340 505 618 183 274 265 424 381 702 113 269 154 394 222 660
96 379 131 668 131 1078 0 227 -4 300 -24 461 -46 359 -106 626 -213 948 -55
166 -88 244 -203 475 -140 283 -232 447 -300 537 -22 29 -66 91 -100 139 -107
153 -301 374 -494 562 -102 101 -190 183 -195 183 -6 0 5771 13825 5783 13837
1 2 931 -2359 2066 -5247 l2063 -5251 -29 -30 c-16 -17 -81 -75 -144 -129
-393 -335 -790 -871 -1034 -1396 -167 -362 -266 -665 -331 -1014 -63 -343 -79
-512 -77 -814 2 -478 52 -815 193 -1311 97 -339 250 -672 472 -1030 339 -545
845 -1051 1392 -1392 278 -173 765 -396 1030 -472 504 -143 818 -190 1280
-191 383 0 688 36 1030 121 373 93 557 162 940 349 266 129 405 217 700 438
365 274 803 752 1051 1147 98 157 279 518 350 700 202 519 314 1059 314 1510
0 193 -18 562 -30 627 -6 29 -15 96 -20 148 -6 52 -17 115 -24 140 -8 25 -20
79 -26 120 -6 41 -17 95 -25 120 -8 25 -21 74 -30 110 -10 36 -31 109 -49 162
l-32 97 2584 2583 c1576 1576 2594 2601 2610 2628 14 25 36 59 49 76 43 58
113 222 145 340 32 117 33 123 33 334 -1 202 -2 221 -27 310 -40 142 -86 255
-133 325 -23 35 -54 83 -68 107 -43 73 -271 286 -367 342 -122 72 -296 139
-435 167 -99 21 -361 23 -432 5 -34 -9 -71 -16 -84 -16 -36 0 -266 -90 -344
-134 -38 -22 -95 -58 -125 -79 -30 -22 -1149 -1133 -2486 -2469 l-2431 -2430
-224 150 c-200 135 -253 165 -494 280 -271 130 -429 196 -540 227 -33 9 -107
32 -165 50 -58 19 -137 39 -175 45 -39 7 -92 18 -120 26 -103 30 -349 63 -623
85 -255 21 -304 22 -485 12 -111 -6 -203 -8 -205 -4 -2 3 -1143 2911 -2535
6461 l-2532 6455 2545 6093 c2304 5515 2547 6092 2565 6087 51 -13 520 -17
665 -6 399 31 762 100 1025 197 55 20 158 56 229 81 160 55 448 193 632 304
389 233 613 408 930 730 220 224 348 381 513 628 194 290 301 488 409 756 58
144 182 513 182 541 0 12 642 14 4089 14 l4090 0 128 30 c232 54 363 118 545
267 137 112 291 317 347 463 89 232 101 291 101 510 0 220 -18 306 -110 533
-41 100 -149 254 -250 357 -173 175 -366 284 -620 348 l-145 37 -4131 3 -4130
2 -64 163 c-81 206 -240 521 -355 705 -183 292 -444 613 -701 862 -234 228
-626 514 -929 679 -132 72 -393 190 -595 268 -118 46 -496 154 -625 178 -646
124 -1313 111 -1895 -35 -384 -96 -574 -167 -935 -347 -337 -168 -529 -293
-847 -551 -150 -122 -443 -416 -570 -572 -380 -468 -663 -991 -807 -1495 -142
-499 -192 -836 -193 -1317 -1 -238 3 -299 25 -478 29 -226 77 -490 102 -560 9
-25 29 -97 45 -160 35 -139 59 -209 138 -407 77 -191 122 -281 257 -518 273
-477 586 -853 1024 -1233 l35 -29 -2029 -4857 c-1115 -2671 -2029 -4855 -2031
-4853 -2 2 -1339 3409 -2971 7572 l-2968 7570 193 195 c152 153 225 237 343
393 205 271 281 390 420 657 123 237 227 478 274 635 14 50 42 137 60 195 34
104 104 443 132 635 8 61 16 230 20 435 5 274 3 366 -11 505 -34 337 -100 669
-183 920 -158 478 -276 717 -578 1170 -209 312 -436 563 -770 851 -185 159
-319 259 -495 370 -158 99 -540 296 -685 351 -185 71 -475 165 -625 202 -405
101 -1010 139 -1465 91 -482 -50 -666 -93 -1135 -268 -554 -207 -1080 -553
-1527 -1004 -239 -242 -366 -402 -620 -783 -210 -316 -445 -881 -528 -1270
-88 -410 -115 -659 -118 -1065 -2 -233 2 -319 15 -410 9 -63 22 -158 28 -210
6 -52 20 -129 30 -170 10 -41 22 -97 25 -125 17 -128 168 -578 268 -800 86
-189 260 -518 330 -620 123 -183 205 -295 241 -333 40 -42 41 -43 25 -70 -28
-47 -10480 -15886 -10490 -15897 -7 -7 -53 4 -137 32 -195 63 -292 91 -347 99
-27 4 -66 12 -85 19 -32 11 -254 47 -470 76 -120 16 -603 23 -735 10 -259 -24
-513 -64 -680 -107 -33 -9 -87 -22 -120 -30 -33 -8 -131 -38 -219 -66 -133
-42 -160 -48 -171 -37 -8 8 -2041 2682 -4519 5942 l-4506 5929 0 6581 c0 4356
-4 6606 -10 6652 -15 98 -61 229 -135 381 -61 125 -69 136 -186 258 -135 141
-190 183 -355 275 -97 54 -132 67 -268 101 -153 39 -163 40 -319 39 -149 -1
-173 -3 -292 -34z m27636 -5625 c263 -25 542 -122 786 -271 94 -58 266 -195
339 -271 239 -247 417 -584 491 -928 26 -123 26 -576 0 -700 -40 -191 -142
-444 -248 -617 -58 -94 -195 -266 -271 -339 -197 -191 -459 -348 -718 -432
-221 -72 -261 -77 -565 -77 -311 0 -346 5 -582 85 -203 69 -366 158 -543 296
-278 217 -485 509 -599 846 -63 185 -79 259 -93 441 -13 163 -2 378 27 517 54
253 185 534 353 750 220 284 514 494 854 609 159 54 261 78 383 90 114 12 275
12 386 1z m15794 -5294 c44 -8 134 -29 200 -46 156 -41 441 -178 565 -271 120
-89 363 -331 408 -404 20 -33 51 -81 69 -107 68 -94 179 -345 216 -488 54
-207 61 -264 61 -490 0 -221 -9 -292 -63 -496 -32 -119 -152 -387 -214 -472
-18 -26 -49 -74 -69 -107 -40 -65 -269 -297 -379 -383 -87 -68 -281 -183 -373
-221 -94 -39 -311 -98 -451 -122 -152 -26 -399 -26 -553 1 -268 46 -448 110
-648 231 -158 95 -216 141 -359 284 -143 143 -189 201 -284 359 -125 207 -187
379 -230 638 -40 242 -40 335 -1 577 43 265 105 439 231 647 95 158 141 217
284 359 187 188 286 256 536 371 192 88 354 132 589 158 71 8 388 -4 465 -18z
m-17165 -741 c125 -30 198 -48 250 -62 133 -35 385 -71 591 -84 208 -14 686
-5 839 14 58 8 108 11 112 8 9 -8 6838 -17430 6838 -17446 0 -11 -6776 -16214
-6783 -16222 -2 -1 -48 2 -103 7 -54 6 -198 13 -319 16 -475 13 -1041 -73
-1451 -221 -336 -122 -440 -167 -744 -327 -215 -113 -397 -235 -625 -418 -243
-195 -549 -506 -705 -715 -68 -91 -279 -400 -334 -487 -26 -43 -51 -78 -55
-79 -3 0 -1622 406 -3597 903 l-3591 903 -17 126 c-38 276 -105 545 -220 874
-35 101 -216 491 -288 620 -228 409 -622 883 -998 1201 -143 122 -521 388
-655 462 -178 99 -596 286 -775 345 -312 105 -591 164 -983 208 -281 32 -696
16 -1117 -42 -382 -52 -826 -197 -1244 -405 -413 -207 -660 -380 -1032 -721
-343 -315 -567 -603 -859 -1108 -131 -225 -240 -485 -330 -785 -143 -475 -196
-835 -198 -1333 0 -276 8 -409 37 -572 8 -44 22 -125 31 -180 9 -55 25 -134
35 -175 40 -168 81 -323 100 -372 10 -29 40 -111 65 -183 51 -142 84 -221 183
-426 l65 -137 -3409 -3788 -3409 -3789 -3 9405 c-1 5173 -1 13628 0 18790 l3
9385 3494 -4598 c3306 -4352 3493 -4600 3481 -4622 -7 -13 -36 -55 -65 -93
-62 -83 -157 -239 -250 -412 -37 -69 -70 -129 -75 -135 -4 -5 -13 -28 -20 -50
-7 -22 -25 -65 -40 -95 -28 -56 -78 -183 -155 -395 -47 -129 -99 -312 -110
-385 -3 -25 -15 -79 -26 -120 -82 -324 -113 -924 -69 -1325 46 -423 110 -684
278 -1135 282 -756 814 -1446 1517 -1967 372 -275 710 -446 1250 -629 377
-129 817 -194 1306 -194 515 0 945 68 1389 219 270 92 338 120 580 241 351
176 572 323 865 574 421 363 665 656 976 1176 295 494 490 1114 555 1765 14
138 16 228 11 475 -6 320 -10 361 -58 660 -77 479 -249 955 -524 1455 -37 66
-85 145 -109 175 -23 30 -58 82 -78 115 -20 33 -50 75 -66 94 l-28 34 5284
8004 c4743 7185 5287 8004 5306 7998 12 -4 46 -12 76 -20z m-13989 -16775
c182 -18 390 -75 566 -155 94 -43 272 -151 370 -224 131 -97 347 -334 432
-474 181 -297 271 -618 271 -967 0 -284 -64 -569 -179 -797 -102 -205 -164
-290 -342 -477 -116 -122 -206 -193 -369 -291 -136 -82 -220 -121 -375 -173
-200 -68 -241 -74 -520 -79 -267 -5 -336 1 -485 42 -270 75 -465 173 -680 341
-126 98 -213 186 -312 314 -116 150 -138 185 -219 355 -60 127 -82 187 -107
290 -43 178 -43 182 -56 335 -22 264 23 573 115 797 45 110 122 264 160 319
132 193 263 336 419 458 215 168 410 266 680 341 178 49 415 66 631 45z m284
-16155 c108 -19 362 -101 460 -148 183 -88 412 -253 540 -388 216 -228 383
-522 450 -789 53 -214 59 -268 59 -485 -1 -305 -44 -499 -171 -771 -63 -134
-94 -188 -172 -292 -123 -163 -211 -255 -341 -357 -197 -155 -353 -239 -585
-315 -213 -69 -287 -80 -555 -80 -290 0 -365 12 -596 95 -142 51 -209 83 -330
155 -94 57 -116 71 -231 158 -104 78 -324 327 -395 447 -143 242 -201 401
-247 677 -41 248 -41 334 3 593 47 276 97 412 244 660 71 120 291 369 395 447
218 164 348 236 561 313 166 60 265 83 431 99 83 8 394 -4 480 -19z m30871
-159 c117 -21 335 -82 420 -117 92 -38 286 -153 373 -221 110 -86 339 -318
379 -383 20 -33 51 -81 69 -107 62 -85 182 -353 214 -472 54 -207 63 -274 62
-501 0 -227 -8 -297 -62 -501 -32 -119 -152 -387 -214 -472 -18 -26 -49 -74
-69 -107 -45 -73 -288 -315 -408 -404 -131 -99 -410 -230 -580 -274 -208 -54
-264 -61 -495 -61 -228 0 -303 10 -495 63 -170 47 -412 164 -580 280 -84 59
-332 307 -391 391 -192 277 -278 486 -328 797 -40 249 -40 339 0 581 51 308
138 518 328 792 59 84 307 332 391 391 88 61 230 146 304 182 156 75 403 141
611 161 80 8 392 -4 471 -18z m-15521 -3260 c288 -49 427 -103 695 -267 84
-52 136 -95 268 -224 90 -88 184 -187 208 -220 61 -87 181 -290 189 -322 3
-16 22 -62 40 -103 34 -76 82 -253 106 -390 17 -98 17 -450 0 -550 -19 -111
-80 -339 -103 -385 -11 -21 -29 -64 -39 -94 -25 -72 -128 -246 -203 -341 -90
-115 -313 -336 -381 -378 -33 -20 -81 -51 -107 -69 -85 -62 -353 -182 -472
-214 -208 -55 -274 -63 -506 -63 -233 1 -308 10 -500 63 -100 27 -396 155
-429 185 -9 8 -56 40 -106 71 -166 103 -405 354 -518 541 -73 121 -168 345
-202 474 -42 164 -45 181 -59 345 -11 145 -2 349 23 480 46 243 166 523 320
745 59 84 307 332 391 391 273 189 472 273 775 325 259 44 351 44 610 0z"/>
<path d="M67955 38014 c-27 -7 -62 -14 -76 -14 -62 0 -368 -140 -469 -214 -71
-51 -1077 -1051 -1184 -1176 -107 -125 -122 -147 -189 -265 -120 -215 -174
-475 -148 -716 13 -119 18 -141 63 -289 24 -77 118 -264 165 -328 15 -21 48
-59 73 -87 26 -27 50 -57 56 -65 14 -23 115 -111 170 -148 109 -74 188 -122
200 -122 12 0 47 -13 119 -46 17 -7 68 -23 115 -36 76 -20 108 -22 305 -22
254 0 313 10 500 88 79 34 131 59 154 77 14 11 55 38 91 61 90 57 1219 1181
1294 1288 74 105 160 277 196 394 43 137 54 233 47 426 -4 154 -7 172 -41 280
-44 138 -119 293 -198 405 -82 117 -254 276 -371 342 -107 61 -332 153 -374
153 -15 0 -53 7 -83 15 -73 19 -344 19 -415 -1z"/>
</g>
</svg>
